# xmcd
#
# Track frame offsets:
#        187
#        12322
#        26187
#        45247
#        56775
#        68305
#        80352
#        94587
#        108347
#        120260
#        131862
#        141612
#        153355
#        163422
#        174822
#        185140
#        200905
#        214550
#
# Disc length: 3080 seconds
#
# Revision: 0
# Processed by: cddbd v1.5.1PL0 Copyright (c) Steve Scherf et al.
# Submitted via: ExactAudioCopy v0.95b2
#
DISCID=fa0c0612
DTITLE=Various Artist - All Songs for Your Heart
DYEAR=1987
DGENRE=Rock
TTITLE0=Have You Ever Seen The Rain
TTITLE1=Never Marry A Railroadman
TTITLE2=The Midnight Special
TTITLE3=Walking Back To Happiness
TTITLE4=Bobby's Girl
TTITLE5=Send Me A Postcard
TTITLE6=Proud Mary
TTITLE7=Venus
TTITLE8=Yellow River
TTITLE9=Don't Treat Me Like A Child
TTITLE10=I'm Telling You Now
TTITLE11=Eary In The Morning
TTITLE12=Winchester Cathedral
TTITLE13=Baby Come Back
TTITLE14=Game Of Love
TTITLE15=In The Summertime
TTITLE16=OB-LA-DI,OB-LA-DA
TTITLE17=Silence Is Golden
EXTD=
EXTT0=
EXTT1=
EXTT2=
EXTT3=
EXTT4=
EXTT5=
EXTT6=
EXTT7=
EXTT8=
EXTT9=
EXTT10=
EXTT11=
EXTT12=
EXTT13=
EXTT14=
EXTT15=
EXTT16=
EXTT17=
PLAYORDER=
